<?xml version="1.0" standalone="no"?>
<!DOCTYPE svg PUBLIC "-//W3C//DTD SVG 20010904//EN"
 "http://www.w3.org/TR/2001/REC-SVG-20010904/DTD/svg10.dtd">
<svg version="1.0" xmlns="http://www.w3.org/2000/svg"
 width="100.000000pt" height="100.000000pt" viewBox="0 0 100.000000 100.000000"
 preserveAspectRatio="xMidYMid meet">

<g transform="translate(0.000000,100.000000) scale(0.100000,-0.100000)"
fill="#000000" stroke="none">
<path d="M100 900 c-19 -19 -20 -33 -20 -400 0 -367 1 -381 20 -400 19 -19 33
-20 400 -20 367 0 381 1 400 20 19 19 20 33 20 400 0 367 -1 381 -20 400 -19
19 -33 20 -400 20 -367 0 -381 -1 -400 -20z m160 -90 l0 -70 -70 0 -70 0 0 63
c0 35 3 67 7 70 3 4 35 7 70 7 l63 0 0 -70z m618 -2 l3 -68 -291 0 -290 0 0
70 0 70 288 -2 287 -3 3 -67z m-618 -398 l0 -291 -67 3 -68 3 -3 288 -2 287
70 0 70 0 0 -290z m618 3 l-3 -288 -287 -3 -288 -2 0 290 0 290 290 0 290 0
-2 -287z"/>
<path d="M642 587 c-41 -41 -50 -55 -40 -65 9 -9 19 -5 45 20 l34 33 -3 -125
-3 -125 -125 -3 -125 -3 35 36 c27 27 31 38 22 47 -10 10 -25 0 -69 -45 l-58
-57 55 -55 c42 -43 57 -52 67 -43 11 9 8 17 -19 45 l-32 33 127 0 c170 0 167
-3 167 167 l0 127 33 -32 c26 -25 36 -29 45 -20 10 10 1 24 -40 65 -29 29 -55
53 -58 53 -3 0 -29 -24 -58 -53z"/>
</g>
</svg>
