<?xml version="1.0" encoding="utf-8"?>
<!-- Svg Vector Icons : http://www.onlinewebfonts.com/icon -->
<!DOCTYPE svg PUBLIC "-//W3C//DTD SVG 1.1//EN" "http://www.w3.org/Graphics/SVG/1.1/DTD/svg11.dtd">
<svg version="1.1" xmlns="http://www.w3.org/2000/svg" xmlns:xlink="http://www.w3.org/1999/xlink" x="0px" y="0px" viewBox="0 0 1000 1000" enable-background="new 0 0 1000 1000" xml:space="preserve">
<metadata> Svg Vector Icons : http://www.onlinewebfonts.com/icon </metadata>
<g><path d="M10,739.9l227.1-300.4l26.1,19.8L36.1,759.7L10,739.9L10,739.9z"/><path d="M782.4,294.8l188.3,362.1L941.6,672L753.3,309.9L782.4,294.8z"/><path d="M192,445.5c0,32.7,26.5,59.2,59.2,59.2s59.2-26.5,59.2-59.2c0-32.7-26.5-59.2-59.2-59.2S192,412.8,192,445.5L192,445.5z"/><path d="M538.9,765l2.6,1.2l234.6-509.3l-29.8-13.7L514.7,745.9L538.9,765z"/><path d="M554,738.6L288.4,473l-23.2,23.2l274.2,274.2L554,738.6z"/><path d="M693.6,288.9c0,32.7,26.5,59.2,59.2,59.2s59.2-26.5,59.2-59.2s-26.5-59.2-59.2-59.2S693.6,256.1,693.6,288.9z"/><path d="M990,522.8h-33.4v-10.2H990V522.8z M920.3,522.8h-36.4v-10.2h36.4V522.8z M847.5,522.8h-36.4v-10.2h36.4V522.8z M774.7,522.8h-36.4v-10.2h36.4V522.8z M701.9,522.8h-36.4v-10.2h36.4V522.8z M629.1,522.8h-36.4v-10.2h36.4V522.8z M556.4,522.8H520v-10.2h36.4V522.8z M483.6,522.8h-36.4v-10.2h36.4V522.8z M410.8,522.8h-36.4v-10.2h36.4V522.8z M338,522.8h-36.4v-10.2H338V522.8z M265.2,522.8h-36.4v-10.2h36.4V522.8z M192.5,522.8h-36.4v-10.2h36.4V522.8z M119.7,522.8H83.3v-10.2h36.4L119.7,522.8L119.7,522.8z M46.9,522.8H10.5v-10.2h36.4L46.9,522.8L46.9,522.8z"/></g>
</svg>